{
    "asset" : {
        "generator" : "Khronos glTF Blender I/O v1.3.48",
        "version" : "2.0"
    },
    "scene" : 0,
    "scenes" : [
        {
            "name" : "Scene",
            "nodes" : [
                0
            ]
        }
    ],
    "nodes" : [
        {
            "mesh" : 0,
            "name" : "rain",
            "rotation" : [
                0,
                0,
                0.21030503511428833,
                0.97763592004776
            ],
            "scale" : [
                0.06272086501121521,
                0.06272086501121521,
                0.06272086501121521
            ]
        }
    ],
    "materials" : [
        {
            "doubleSided" : true,
            "emissiveFactor" : [
                0,
                0,
                0
            ],
            "name" : "white",
            "pbrMetallicRoughness" : {
                "baseColorFactor" : [
                    1,
                    1,
                    1,
                    1
                ],
                "metallicFactor" : 0,
                "roughnessFactor" : 0.12162163853645325
            }
        }
    ],
    "meshes" : [
        {
            "name" : "Sphere.007",
            "primitives" : [
                {
                    "attributes" : {
                        "POSITION" : 0,
                        "NORMAL" : 1,
                        "TEXCOORD_0" : 2
                    },
                    "indices" : 3,
                    "material" : 0
                }
            ]
        }
    ],
    "accessors" : [
        {
            "bufferView" : 0,
            "componentType" : 5126,
            "count" : 10725,
            "max" : [
                23.255817413330078,
                17.05636978149414,
                13.89974594116211
            ],
            "min" : [
                -22.369762420654297,
                -11.782769203186035,
                -14.833929061889648
            ],
            "type" : "VEC3"
        },
        {
            "bufferView" : 1,
            "componentType" : 5126,
            "count" : 10725,
            "type" : "VEC3"
        },
        {
            "bufferView" : 2,
            "componentType" : 5126,
            "count" : 10725,
            "type" : "VEC2"
        },
        {
            "bufferView" : 3,
            "componentType" : 5123,
            "count" : 16440,
            "type" : "SCALAR"
        }
    ],
    "bufferViews" : [
        {
            "buffer" : 0,
            "byteLength" : 128700,
            "byteOffset" : 0
        },
        {
            "buffer" : 0,
            "byteLength" : 128700,
            "byteOffset" : 128700
        },
        {
            "buffer" : 0,
            "byteLength" : 85800,
            "byteOffset" : 257400
        },
        {
            "buffer" : 0,
            "byteLength" : 32880,
            "byteOffset" : 343200
        }
    ],
    "buffers" : [
        {
            "byteLength" : 376080,
            "uri" : "data:application/octet-stream;base64,"
        }
    ]
}
