{
    "asset" : {
        "generator" : "Khronos glTF Blender I/O v1.3.48",
        "version" : "2.0"
    },
    "scene" : 0,
    "scenes" : [
        {
            "name" : "Scene",
            "nodes" : [
                0
            ]
        }
    ],
    "nodes" : [
        {
            "mesh" : 0,
            "name" : "snow",
            "rotation" : [
                0,
                0,
                -0.3826834559440613,
                0.9238795042037964
            ],
            "scale" : [
                0.03655935823917389,
                0.03655935823917389,
                0.03655935823917389
            ]
        }
    ],
    "materials" : [
        {
            "doubleSided" : true,
            "emissiveFactor" : [
                0,
                0,
                0
            ],
            "name" : "white",
            "pbrMetallicRoughness" : {
                "baseColorFactor" : [
                    1,
                    1,
                    1,
                    1
                ],
                "metallicFactor" : 0,
                "roughnessFactor" : 0.12162163853645325
            }
        }
    ],
    "meshes" : [
        {
            "name" : "Sphere.013",
            "primitives" : [
                {
                    "attributes" : {
                        "POSITION" : 0,
                        "NORMAL" : 1,
                        "TEXCOORD_0" : 2
                    },
                    "indices" : 3,
                    "material" : 0
                }
            ]
        }
    ],
    "accessors" : [
        {
            "bufferView" : 0,
            "componentType" : 5126,
            "count" : 14510,
            "max" : [
                29.47547721862793,
                31.98724365234375,
                26.332372665405273
            ],
            "min" : [
                -34.226463317871094,
                -33.736473083496094,
                -22.96282958984375
            ],
            "type" : "VEC3"
        },
        {
            "bufferView" : 1,
            "componentType" : 5126,
            "count" : 14510,
            "type" : "VEC3"
        },
        {
            "bufferView" : 2,
            "componentType" : 5126,
            "count" : 14510,
            "type" : "VEC2"
        },
        {
            "bufferView" : 3,
            "componentType" : 5123,
            "count" : 21840,
            "type" : "SCALAR"
        }
    ],
    "bufferViews" : [
        {
            "buffer" : 0,
            "byteLength" : 174120,
            "byteOffset" : 0
        },
        {
            "buffer" : 0,
            "byteLength" : 174120,
            "byteOffset" : 174120
        },
        {
            "buffer" : 0,
            "byteLength" : 116080,
            "byteOffset" : 348240
        },
        {
            "buffer" : 0,
            "byteLength" : 43680,
            "byteOffset" : 464320
        }
    ],
    "buffers" : [
        {
            "byteLength" : 508000,
            "uri" : "data:application/octet-stream;base64,"
        }
    ]
}
