{
    "asset" : {
        "generator" : "Khronos glTF Blender I/O v1.3.48",
        "version" : "2.0"
    },
    "scene" : 0,
    "scenes" : [
        {
            "name" : "Scene",
            "nodes" : [
                0
            ]
        }
    ],
    "nodes" : [
        {
            "mesh" : 0,
            "name" : "storm",
            "rotation" : [
                0,
                0,
                -0.3826834559440613,
                0.9238795042037964
            ],
            "scale" : [
                0.03655935823917389,
                0.03655935823917389,
                0.03655935823917389
            ]
        }
    ],
    "materials" : [
        {
            "doubleSided" : true,
            "emissiveFactor" : [
                0,
                0,
                0
            ],
            "name" : "white",
            "pbrMetallicRoughness" : {
                "baseColorFactor" : [
                    1,
                    1,
                    1,
                    1
                ],
                "metallicFactor" : 0,
                "roughnessFactor" : 0.12162163853645325
            }
        }
    ],
    "meshes" : [
        {
            "name" : "Sphere.019",
            "primitives" : [
                {
                    "attributes" : {
                        "POSITION" : 0,
                        "NORMAL" : 1,
                        "TEXCOORD_0" : 2
                    },
                    "indices" : 3,
                    "material" : 0
                }
            ]
        }
    ],
    "accessors" : [
        {
            "bufferView" : 0,
            "componentType" : 5126,
            "count" : 11233,
            "max" : [
                33.92838668823242,
                31.98724365234375,
                26.332372665405273
            ],
            "min" : [
                -34.226463317871094,
                -42.28363800048828,
                -22.96282958984375
            ],
            "type" : "VEC3"
        },
        {
            "bufferView" : 1,
            "componentType" : 5126,
            "count" : 11233,
            "type" : "VEC3"
        },
        {
            "bufferView" : 2,
            "componentType" : 5126,
            "count" : 11233,
            "type" : "VEC2"
        },
        {
            "bufferView" : 3,
            "componentType" : 5123,
            "count" : 17004,
            "type" : "SCALAR"
        }
    ],
    "bufferViews" : [
        {
            "buffer" : 0,
            "byteLength" : 134796,
            "byteOffset" : 0
        },
        {
            "buffer" : 0,
            "byteLength" : 134796,
            "byteOffset" : 134796
        },
        {
            "buffer" : 0,
            "byteLength" : 89864,
            "byteOffset" : 269592
        },
        {
            "buffer" : 0,
            "byteLength" : 34008,
            "byteOffset" : 359456
        }
    ],
    "buffers" : [
        {
            "byteLength" : 393464,
            "uri" : "data:application/octet-stream;base64,"
        }
    ]
}
